<svg width="55" height="55" fill="none" xmlns="http://www.w3.org/2000/svg"><g clip-path="url(#a)"><path d="M55 27.5C55 12.309 42.692 0 27.5 0 12.309 0 0 12.309 0 27.5c0 13.725 10.056 25.103 23.203 27.167V35.45h-6.986V27.5h6.986v-6.059c0-6.891 4.103-10.698 10.387-10.698 3.01 0 6.156.536 6.156.536v6.765h-3.468c-3.416 0-4.481 2.12-4.481 4.294V27.5h7.627l-1.22 7.95h-6.407v19.217C44.943 52.603 55 41.225 55 27.5z" fill="#fff"/></g><defs><clipPath id="a"><path fill="#fff" d="M0 0H55V55H0z"/></clipPath></defs></svg>