<svg width="55" height="55" fill="none" xmlns="http://www.w3.org/2000/svg"><g clip-path="url(#a)"><path d="M27.506 13.399A14.077 14.077 0 0013.408 27.5a14.077 14.077 0 0014.098 14.101A14.077 14.077 0 0041.604 27.5a14.077 14.077 0 00-14.098-14.101zm0 23.269c-5.043 0-9.166-4.112-9.166-9.168 0-5.056 4.11-9.168 9.166-9.168 5.055 0 9.166 4.112 9.166 9.168 0 5.056-4.123 9.168-9.166 9.168zM45.47 12.822a3.281 3.281 0 01-3.288 3.289 3.281 3.281 0 01-3.288-3.29 3.289 3.289 0 116.576 0zm9.338 3.338c-.209-4.406-1.215-8.309-4.442-11.524C47.15 1.421 43.248.414 38.843.193c-4.54-.257-18.147-.257-22.687 0-4.392.209-8.294 1.215-11.521 4.43C1.408 7.84.415 11.743.193 16.149c-.257 4.54-.257 18.151 0 22.692.209 4.406 1.215 8.308 4.442 11.524 3.227 3.215 7.117 4.222 11.521 4.443 4.54.257 18.148.257 22.688 0 4.404-.209 8.306-1.215 11.521-4.443 3.215-3.215 4.22-7.118 4.442-11.524.257-4.54.257-18.14 0-22.68zm-5.865 27.552c-.957 2.406-2.81 4.259-5.227 5.228-3.62 1.436-12.209 1.105-16.209 1.105s-12.601.319-16.208-1.105c-2.405-.957-4.258-2.81-5.227-5.228-1.436-3.62-1.105-12.211-1.105-16.212 0-4-.319-12.604 1.105-16.212.957-2.406 2.81-4.259 5.227-5.228 3.62-1.436 12.208-1.105 16.208-1.105 4 0 12.601-.319 16.209 1.105 2.405.957 4.257 2.81 5.227 5.228 1.435 3.62 1.104 12.211 1.104 16.212 0 4.001.331 12.604-1.104 16.212z" fill="#fff"/></g><defs><clipPath id="a"><path fill="#fff" d="M0 0H55V55H0z"/></clipPath></defs></svg>