<svg width="50" height="45" fill="none" xmlns="http://www.w3.org/2000/svg"><g clip-path="url(#a)"><path d="M44.86 11.04c.032.485.032.97.032 1.454 0 14.779-10.31 31.807-29.156 31.807-5.806 0-11.2-1.834-15.736-5.019.825.104 1.618.139 2.475.139 4.79 0 9.2-1.765 12.722-4.776-4.505-.104-8.28-3.323-9.582-7.753.635.104 1.27.173 1.936.173.92 0 1.84-.139 2.697-.38-4.696-1.039-8.218-5.538-8.218-10.972v-.138a9.68 9.68 0 004.632 1.419c-2.76-2.008-4.568-5.434-4.568-9.31 0-2.077.507-3.98 1.396-5.642C8.534 8.826 16.117 13.255 24.62 13.74a13.715 13.715 0 01-.255-2.56C24.365 5.017 28.934 0 34.613 0c2.95 0 5.615 1.35 7.487 3.53a19.183 19.183 0 006.504-2.7c-.761 2.596-2.38 4.777-4.505 6.161 2.062-.242 4.061-.865 5.901-1.73-1.396 2.215-3.14 4.187-5.14 5.78z" fill="#fff"/></g><defs><clipPath id="a"><path fill="#fff" d="M0 0H50V45H0z"/></clipPath></defs></svg>