<svg width="54" height="39" fill="none" xmlns="http://www.w3.org/2000/svg"><g clip-path="url(#a)"><path d="M52.872 6.102C52.25 3.7 50.42 1.81 48.098 1.167 43.886 0 27 0 27 0S10.114 0 5.903 1.167C3.579 1.809 1.749 3.7 1.128 6.102 0 10.456 0 19.54 0 19.54s0 9.084 1.128 13.438a6.775 6.775 0 004.775 4.856C10.113 39 27 39 27 39s16.886 0 21.098-1.167a6.775 6.775 0 004.774-4.856C54 28.623 54 19.539 54 19.539s0-9.083-1.128-13.437zM21.477 27.786V11.293l14.114 8.248-14.114 8.247z" fill="#fff"/></g><defs><clipPath id="a"><path fill="#fff" d="M0 0H54V39H0z"/></clipPath></defs></svg>